<?xml version="1.0" encoding="iso-8859-1"?>
<!-- Uploaded to: SVG Repo, www.svgrepo.com, Generator: SVG Repo Mixer Tools -->
<svg fill="#000000" height="800px" width="800px" version="1.1" id="Layer_1" xmlns="http://www.w3.org/2000/svg" xmlns:xlink="http://www.w3.org/1999/xlink" 
	 viewBox="0 0 512 512" xml:space="preserve">
<g>
	<g>
		<path d="M394.102,0.004L31.962,362.144l12.693,12.693L3.081,462.738c-3.774,8.111-6.525,25.471,7.091,39.092
			c7.698,7.701,16.592,10.167,24.353,10.167c5.97,0,11.269-1.46,14.837-3.121l87.804-41.527l12.692,12.692L512,117.9L394.102,0.004z
			 M33.458,476.525c-0.079,0.187-0.143,0.302-0.176,0.372L33.458,476.525z M35.195,478.679c-0.011,0.003-0.858,0.145-1.434-0.432
			c-0.255-0.255-0.634-0.635-0.254-1.823l36.198-76.536l42.412,42.412L35.195,478.679z M149.858,432.87l-70.725-70.725
			l17.348-17.348l70.725,70.725L149.858,432.87z M190.792,391.936l-70.725-70.725l231.76-231.76l70.725,70.726L190.792,391.936z
			 M375.412,65.865l18.69-18.69l70.726,70.725l-18.691,18.691L375.412,65.865z"/>
	</g>
</g>
</svg>